<?xml version="1.0" encoding="utf-8"?>
<!-- Generator: Adobe Illustrator 28.0.0, SVG Export Plug-In . SVG Version: 6.00 Build 0)  -->
<svg version="1.1" id="Слой_1" xmlns="http://www.w3.org/2000/svg" xmlns:xlink="http://www.w3.org/1999/xlink" x="0px" y="0px"
	 viewBox="0 0 1000 311.575592" enable-background="new 0 0 1000 311.575592" xml:space="preserve">
<path fill-rule="evenodd" clip-rule="evenodd" fill="#000001" d="M155.787796,0
	c86.0328217,0,155.787796,69.7431793,155.787796,155.787796c0,86.0445099-69.7549744,155.787796-155.787796,155.787796
	C69.7546692,311.575592,0,241.8206177,0,155.787796C0.0000098,69.7546692,69.7546692,0.0000098,155.787796,0z
	 M284.0644226,118.0326233c-3.936554,27.3037567-17.8162842,49.8355408-29.3961792,64.4971161
	c-17.8717651,22.0147552-41.8144073,41.0744324-69.2895203,55.1586304
	c-27.1772003,13.9342346-56.5753326,22.3983917-85.0104904,24.4762115
	c-4.8130646,0.2774963-9.2833023,0.4147644-13.4729156,0.4147644c-4.9859848,0-9.582901-0.1996155-13.9458313-0.59198
	c22.8012924,17.8600769,51.5308075,28.5091553,82.7370529,28.5091553l-0.0175323-0.0175171
	c74.1764221,0,134.3202515-60.134079,134.3202515-134.3105011c0-12.8729401-1.815918-25.3174744-5.1984558-37.1047592
	C284.5483398,118.7171173,284.3068848,118.367569,284.0644226,118.0326233z M174.8980865,14.2078466
	c-45.890213,0-87.6047363,18.924614-111.5839767,50.6023102l-0.152092,0.1859741
	c-10.3664131,12.6290283-17.2570992,26.4838257-19.9129868,40.0710526
	c-1.5124092,8.2664871-1.2328682,15.858223,0.8452415,22.4743347v-0.0175247
	c4.9296112,14.8008041,16.9205017,26.669899,30.5201912,30.1566238c5.6570511,1.408905,11.0952072,1.9979706,16.151886,1.7672119
	l1.3353882-0.1187744c34.3814011-2.7710876,65.0394669-24.4382477,90.4961624-45.2777863
	c15.9312439-13.3334885,31.1702118-30.9751892,32.1516724-42.369606
	c-22.2124176,10.7712708-45.1434021,24.7859344-71.5805817,43.7308044c-2.932724,2.0895004-6.9296417,1.5043259-9.1116486-1.3358841
	c-13.126091-16.9935226-24.5560532-30.7937012-35.9967117-43.4007263c-1.2453308-1.3849564-1.8665314-3.2423325-1.6821213-5.0881271
	c0.173111-1.8471527,1.131012-3.5572205,2.6197586-4.665554c35.0503006-26.2870445,69.9146347-41.1817207,103.7400742-44.322403
	C193.666626,15.0070381,184.3631592,14.2080421,174.8980865,14.2078466z"/>
<path fill-rule="evenodd" clip-rule="evenodd" fill="#000001" d="M703.0148315,159.7350616
	c72.605896,0,84.274353,25.4703217,76.7351685,46.1813354l-12.2887573,34.7124481
	c-3.7855835,10.7347565,3.208313,13.1338959,8.2071533,13.1348572h13.5993042c1.3388062,0,2.2755127,1.3446503,1.8256226,2.6036072
	l-13.5827026,37.3326111c-0.4849243,1.3154297-1.736084,2.1975708-3.1439819,2.1975708H721.972229
	c-21.4802246-0.0009766-27.5422974-9.28302-27.232666-16.6595459c-6.1107788,5.0007629-33.0192871,19.5153198-65.6295166,19.5162964
	h-15.8309326c-37.1398315-0.0009766-62.8389893-19.2796936-53.8227539-44.0441132
	c9.0054932-24.7498169,28.8411865-37.3657074,76.862793-40.4600525l71.614624-2.1459808
	c7.1691895-0.7166138,10.1184082-1.8743134,12.0696411-7.6238556c2.0515747-6.890686-10.9820557-10.9450531-30.2587891-10.9460449
	h-10.7425537c-18.3197021,0.0009918-33.1672363,7.0766754-37.1972656,11.0132141
	c-0.911377,0.8996887-2.1430664,1.368988-3.4234009,1.368988l-54.9716797-0.2365875
	c-1.3495483-0.0019531-2.2336426-1.408905-1.65625-2.620163c8.4290771-17.8484039,39.5769043-43.324585,107.3660278-43.324585
	H703.0148315z M706.5473022,235.6173401c-8.6014404,0.9814758-22.6155396,2.4225006-37.7717285,3.8538208
	c-33.7572632,3.0943146-43.4073486,6.4359741-47.8979492,14.055954
	c-4.2587891,8.3346405,2.6201782,11.9002533,22.6262817,11.9002533c35.0268555,0,56.1293945-12.3452301,62.8827515-23.8092651
	l1.9268799-3.2793274C709.0739746,237.0457458,708.0360718,235.4440308,706.5473022,235.6173401z"/>
<path fill="#000001" d="M976.7797241,163.7154388c1.1099854,0,1.9960327,0.8986969,1.9960327,1.9950714v37.4513702
	c0,1.1070709-0.895813,1.9940796-1.9960327,1.9940796h-58.6696777c-1.1070557,0.0019531-1.9950562,0.9074707-1.9950562,2.0028534
	v86.8955078c0,1.1070557-0.8986816,1.993103-1.9941406,1.9950562h-56.1380615
	c-1.1070557-0.0029297-1.9950562-0.8996582-1.9950562-1.9950562v-86.8955078c0-1.1080322-0.8987427-2.0018616-1.9951172-2.0028534
	h-58.682312c-1.1080933,0-1.9940796-0.8977203-1.9940796-1.9940796v-37.4513702
	c0-1.1080475,0.8977661-1.9950714,1.9940796-1.9950714H976.7797241z"/>
<path fill="#000001" d="M544.4968262,163.0309601c1.3602295,0.0009613,2.4575806,1.1109467,2.4594727,2.4594879l0.0078125,0.0253143
	v128.0565948c0,1.3631592-1.1080322,2.4595032-2.4594727,2.4595032h-54.480957
	c-1.3612061-0.0009766-2.4595032-1.1090088-2.4595032-2.4595032v-39.056015
	c-0.0009766-1.4770508-1.2657776-2.6143036-2.7301636-2.4429169c-11.7415161,1.4429626-31.2081909,2.2481995-46.4354858,2.2481995
	c-61.7659607,0-81.6464233-16.9273224-81.6464233-61.7338409v-27.0798035c0-1.3621674,1.1080322-2.4594879,2.4594727-2.4594879
	h55.0476379c1.3611755,0.0009613,2.4595032,1.1089935,2.4595032,2.4594879V188.06604
	c0.000946,20.974884,9.1525574,25.4995422,33.4865723,25.4995422c7.5625305,0,26.9931641-0.5744629,35.1437683-1.3942871
	c1.2579956-0.1265869,2.2053833-1.1898346,2.2063599-2.4595032v-44.221344
	c0.000946-1.3611908,1.1100159-2.4594879,2.4595032-2.4594879H544.4968262z"/>
<path fill="#000001" d="M474.5052795,17.4618645c1.1070557,0,2.0018616,0.8993816,2.0028381,1.9946671v34.6110802
	c0,1.1083336-0.9064941,2.0031395-2.0028381,2.0031395H418.688446c-1.1080322,0.0006828-1.9950256,0.8986015-1.9950256,1.9946709
	v89.7518845c0,1.1070557-0.8996887,1.993103-1.9950867,1.9950562h-55.9521484
	c-1.1061096-0.0009766-1.992157-0.9084473-1.9940796-2.0028534V19.4565315
	c0.0009766-1.106287,0.8996582-1.9937897,1.9940796-1.9946671H474.5052795z"/>
<path fill="#000001" d="M545.4179077,17.470335c1.1070557,0,1.993103,0.8990898,1.9951172,1.994669v71.4281158
	c0,1.834404,2.2491455,2.6905518,3.4730225,1.3438644l66.8729248-74.1073761
	c0.3690186-0.4156609,0.9133301-0.6592751,1.4790039-0.6592751h57.0513916c1.1070557,0,2.0019531,0.8990898,2.0028687,1.994669
	v128.3445129c0,1.1080475-0.9064941,2.0028534-2.0028687,2.0028534h-55.9443359
	c-1.1080322,0-1.9950562-0.9064941-1.9950562-2.0028534V76.5500336c0-1.8231125-2.2491455-2.6914291-3.4730835-1.3438644
	l-66.8728638,73.9470139c-0.3807373,0.4147797-0.9133301,0.6591797-1.4790649,0.6591797h-57.0513916
	c-1.1080322,0-2.0028381-0.9064941-2.0028381-2.0028534V19.465004c0.000946-1.107069,0.9074402-1.994669,2.0028381-1.994669
	H545.4179077z"/>
<path fill="#000001" d="M810.5414429,17.4618645c1.1051636,0.0018482,1.9921875,0.9004536,1.9941406,1.9946671v34.6110802
	c0,1.1071663-0.8996582,2.0012932-1.9941406,2.0031395h-55.8255615c-1.1070557,0.0012665-1.9950562,0.8989944-1.9950562,1.9946709
	v89.7518845c-0.0009766,1.1070557-0.8996582,1.993103-1.9949951,1.9950562h-55.9521484
	c-1.1061401-0.0019531-1.9921875-0.9094238-1.9951172-2.0028534V19.4565315
	c0.0019531-1.1059952,0.9006348-1.993206,1.9951172-1.9946671H810.5414429z"/>
<path fill-rule="evenodd" clip-rule="evenodd" fill="#000001" d="M928.6325073,17.4365482
	c0.5997925,0.0008774,1.1547852,0.3294926,1.4205933,0.8367748l69.7734375,129.3248901
	c0.5355225,1.0155487-0.2336426,2.2141418-1.4215088,2.2141418h-66.4591064c-0.6231689,0-1.1995239-0.3456573-1.4536743-0.8880005
	l-7.961731-16.5397949c-0.2658081-0.5433044-0.8305054-0.8967438-1.4537354-0.8967438h-72.3244629
	c-0.6348267,0-1.2044067,0.3621979-1.4702759,0.904541l-7.7757568,16.5242157
	c-0.2540894,0.5413666-0.8363647,0.8957825-1.4711914,0.8957825h-60.3297729c-1.1781616,0-1.953186-1.1645203-1.4459229-2.1810303
	l65.5623169-129.3242188c0.2658691-0.5310402,0.8334961-0.8705616,1.4458618-0.8705616H928.6325073z M885.9242554,57.2793732
	c-0.5773926-1.1750298-2.3406982-1.1749344-2.9073486,0l-17.0305176,35.5830994
	c-0.4849243,1.0038605,0.2891846,2.1455917,1.4536743,2.1467514h34.3745117c1.1636353-0.002037,1.93573-1.1524353,1.4537354-2.15522
	l0.008728,0.0084686L885.9242554,57.2793732z"/>
</svg>
